<?xml version="1.0" encoding="UTF-8"?>
<svg version="1.1" xmlns="http://www.w3.org/2000/svg" width="307" height="309">
<path d="M0 0 C101.31 0 202.62 0 307 0 C307 101.97 307 203.94 307 309 C205.69 309 104.38 309 0 309 C0 207.03 0 105.06 0 0 Z " fill="#163050" transform="translate(0,0)"/>
<path d="M0 0 C101.31 0 202.62 0 307 0 C307 101.97 307 203.94 307 309 C205.69 309 104.38 309 0 309 C0 207.03 0 105.06 0 0 Z M37.2892369 57.28941149 C35.03323631 60.28272381 35.59011084 63.9742978 35.61904907 67.57873535 C35.6143691 68.46531279 35.60968913 69.35189023 35.60486734 70.26533365 C35.59286307 73.24800302 35.60239577 76.23021752 35.61181641 79.21289062 C35.60775312 81.34637216 35.60241261 83.4798516 35.59588623 85.61332703 C35.58217796 91.41693694 35.58752578 97.22038736 35.59702349 103.02400017 C35.60460191 109.08847366 35.59757954 115.15293321 35.59286499 121.21740723 C35.58740213 131.40293844 35.59461297 141.58840446 35.60888672 151.77392578 C35.62521421 163.56132243 35.61992608 175.34856342 35.6034075 187.13595629 C35.58980775 197.24384919 35.58786558 207.35169515 35.59572351 217.45959425 C35.60040834 223.50208558 35.60100267 229.54450368 35.59111404 235.58699036 C35.58246864 241.26688257 35.58842187 246.94657347 35.60579681 252.62644386 C35.60977465 254.71505715 35.60860559 256.80368728 35.60200882 258.89229393 C35.59385439 261.73551543 35.60404079 264.57808509 35.61904907 267.42126465 C35.61235691 268.25481555 35.60566474 269.08836644 35.59876978 269.94717646 C35.53863831 274.09453752 35.53863831 274.09453752 37.29021299 277.71093768 C40.27548449 279.96162796 43.94622383 279.4061713 47.54077148 279.3742218 C48.42326537 279.37819621 49.30575926 279.38217061 50.21499538 279.38626546 C53.18385677 279.39592049 56.15224543 279.38405097 59.12109375 279.37231445 C61.24472227 279.37474136 63.36834966 279.37845969 65.49197388 279.38337708 C71.26873363 279.39280354 77.04532448 279.38334586 82.82207108 279.37004495 C88.85851323 279.35875205 94.89494681 279.36283628 100.93139648 279.36479187 C111.06985239 279.36567553 121.20824152 279.35457938 131.34667969 279.33618164 C143.07951916 279.31501294 154.81226077 279.31150372 166.54511547 279.3177436 C177.81704695 279.32343215 189.08894386 279.3177976 200.36087036 279.30657005 C205.16464882 279.30191732 209.96840618 279.30105313 214.77218628 279.3031559 C220.42578024 279.30503525 226.07927416 279.2969621 231.73284531 279.2810955 C233.81178244 279.27684169 235.89072971 279.27600942 237.96966934 279.27878571 C240.79963333 279.2819924 243.62929557 279.27296397 246.45922852 279.26069641 C247.28888846 279.26447573 248.11854841 279.26825506 248.97334957 279.27214891 C252.84015873 279.2423394 254.70663185 279.19557877 258 277 C258.94227628 274.17317117 259.12365163 272.46405295 259.12025452 269.53913879 C259.12162918 268.62628616 259.12300385 267.71343353 259.12442017 266.7729187 C259.12082489 265.77382477 259.11722961 264.77473083 259.11352539 263.74536133 C259.11374443 262.16462578 259.11374443 262.16462578 259.1139679 260.55195618 C259.11327015 257.0619604 259.10548416 253.57201772 259.09765625 250.08203125 C259.09579158 247.66493255 259.09436791 245.24783347 259.09336853 242.83073425 C259.08954721 236.46358195 259.07972018 230.09645239 259.06866455 223.72930908 C259.05844218 217.23425606 259.05386914 210.73919937 259.04882812 204.24414062 C259.03809759 191.49608404 259.02121751 178.74804323 259 166 C260.11910515 166.01142029 260.11910515 166.01142029 261.26081848 166.02307129 C262.24442856 166.02899292 263.22803864 166.03491455 264.24145508 166.04101562 C265.70087273 166.05243591 265.70087273 166.05243591 267.18977356 166.06408691 C270.88427576 165.97983419 274.09147616 165.35450071 277.6875 164.5 C278.88761719 164.2215625 280.08773437 163.943125 281.32421875 163.65625 C282.20722656 163.4396875 283.09023438 163.223125 284 163 C283.29926299 159.19830033 281.8715353 157.61916359 278.80078125 155.22265625 C275.70332046 153.11960804 272.38287854 151.58414648 269 150 C266.88532108 148.91659936 264.77392018 147.82712998 262.6640625 146.734375 C260.99819357 145.86541802 260.99819357 145.86541802 259 146 C259.00666183 144.9314679 259.01332367 143.86293579 259.02018738 142.76202393 C259.08097379 132.69745945 259.12596078 122.63293218 259.15543652 112.56822586 C259.17109967 107.39371344 259.1923499 102.21934908 259.22631836 97.04492188 C259.25888849 92.05232028 259.27684812 87.05986119 259.28463173 82.06716156 C259.29017945 80.16134141 259.30101265 78.25552915 259.31719017 76.34976959 C259.33893326 73.68255185 259.34196824 71.01592477 259.34057617 68.34863281 C259.351362 67.5588504 259.36214783 66.76906799 259.3732605 65.95535278 C259.35653396 62.99812474 259.23139839 60.51676298 258.01362324 57.79720592 C254.8678442 54.98952442 251.43177864 55.4525814 247.42126465 55.49879456 C246.09139849 55.49049296 246.09139849 55.49049296 244.73466635 55.48202366 C241.75186565 55.46836642 238.76989438 55.48341383 235.78710938 55.49829102 C233.65362695 55.49450969 231.52014696 55.48901119 229.38667297 55.48191833 C223.58301147 55.46792224 217.77964504 55.47916271 211.97599983 55.49562955 C205.91152827 55.50944848 199.84707439 55.50302358 193.78259277 55.49949646 C183.59703803 55.49679184 173.41160096 55.51029166 163.22607422 55.53344727 C151.4386717 55.56005852 139.65146598 55.56180501 127.86404371 55.5500589 C116.53977399 55.53929159 105.21557569 55.54545997 93.89131165 55.55961418 C89.06519387 55.56538307 84.2391282 55.56528422 79.41300964 55.56054878 C73.73310595 55.55578762 68.05341864 55.56584498 62.37355614 55.58750343 C60.28494687 55.59308323 58.19631686 55.59352574 56.10770607 55.58855057 C53.26447312 55.58262565 50.42190798 55.59504902 47.57873535 55.61231995 C46.74518445 55.6063099 45.91163356 55.60029986 45.05282354 55.59410769 C40.90576015 55.53775643 40.90576015 55.53775643 37.2892369 57.28941149 Z " fill="#FEFEFE" transform="translate(0,0)"/>
<path d="M0 0 C62.7 0 125.4 0 190 0 C190 21.78 190 43.56 190 66 C188.35 66 186.7 66 185 66 C184.75765625 65.16210938 184.5153125 64.32421875 184.265625 63.4609375 C182.82512313 59.52178733 180.93698972 56.18644887 178.75 52.625 C178.14937744 51.63753784 178.14937744 51.63753784 177.53662109 50.63012695 C172.34951865 41.83610585 172.34951865 41.83610585 165 35 C165 34.34 165 33.68 165 33 C164.2575 32.731875 163.515 32.46375 162.75 32.1875 C160 31 160 31 158.1875 29.5625 C153.07111049 25.90793607 147.46739712 24.68852064 141.2734375 24.30859375 C139 24 139 24 136.2421875 23.0703125 C132.44484342 21.81673144 128.68259002 21.11814058 124.75 20.4375 C117.25619835 19.12809917 117.25619835 19.12809917 115 18 C112.37131559 17.79201618 109.75764738 17.62580793 107.125 17.5 C99.4903162 17.13124068 99.4903162 17.13124068 97.15844727 16.50708008 C94.31458006 15.83897555 91.5623762 15.74284532 88.64453125 15.60546875 C74.77117169 14.87229114 61.37258331 14.05133885 48 10 C47.08605469 9.7525 46.17210937 9.505 45.23046875 9.25 C40.01364108 7.72734383 36.26682439 5.35898941 32 2 C32.66 4.97 33.32 7.94 34 11 C34.66 11 35.32 11 36 11 C36.83819158 12.62249941 37.6704116 14.24808497 38.5 15.875 C38.9640625 16.77992187 39.428125 17.68484375 39.90625 18.6171875 C41 21 41 21 41 23 C39.35 23 37.7 23 36 23 C37.30653485 25.35176273 38.63957651 27.67927758 40 30 C40.78117187 31.33804688 40.78117187 31.33804688 41.578125 32.703125 C45.36672036 39.02361774 45.36672036 39.02361774 50.875 43.75 C53.78365816 45.92335979 53.99994 46.99966416 54.66015625 50.6953125 C54.97811898 54.46633272 55.03368997 58.21709714 55 62 C57.97 62.99 60.94 63.98 64 65 C64.0825 66.32 64.165 67.64 64.25 69 C65.3600895 78.44316138 69.80407142 83.19402945 77 89 C82.14293253 93.62863928 86.24186268 99.20892487 90 105 C90 105.66 90 106.32 90 107 C90.66 107 91.32 107 92 107 C95.48713029 110.23055214 98.53613494 113.76960232 101.625 117.375 C105.86659056 122.0921052 110.15775805 125.31338709 115.6015625 128.515625 C118.50523376 130.31268539 120.62508658 132.56089973 123 135 C125.10541473 136.37050582 127.24103891 137.64694814 129.42578125 138.88671875 C129.94527344 139.25410156 130.46476563 139.62148437 131 140 C131 140.66 131 141.32 131 142 C131.57878906 142.26167969 132.15757812 142.52335938 132.75390625 142.79296875 C138.564741 145.91566082 143.48660342 151.26093359 148 156 C148.65226563 156.680625 149.30453125 157.36125 149.9765625 158.0625 C154.12829685 162.53127588 157.0039487 166.23362957 159 172 C159.391875 172.86625 159.78375 173.7325 160.1875 174.625 C161 177 161 177 161 182 C164.96 182.33 168.92 182.66 173 183 C172.71501128 179.39519593 172.42217519 175.79130362 172.125 172.1875 C172.04636719 171.18267578 171.96773437 170.17785156 171.88671875 169.14257812 C170.87396513 157.02848675 169.22460674 144.390454 163.8125 133.375 C161.70735771 128.68589875 160.77889393 125.07920195 162 120 C165.88708139 110.584853 171.4958138 99.7520931 181 95 C183.97 95 186.94 95 190 95 C190 126.02 190 157.04 190 189 C127.3 189 64.6 189 0 189 C0 126.63 0 64.26 0 0 Z " fill="#9CCB5A" transform="translate(52,73)"/>
<path d="M0 0 C0.88657744 -0.00538554 1.77315488 -0.01077108 2.6865983 -0.01631981 C5.66925685 -0.03067309 8.6514762 -0.02347756 11.63415527 -0.01637268 C13.76763772 -0.02207236 15.90111712 -0.02903504 18.03459167 -0.03717041 C23.83819311 -0.05516038 29.64164384 -0.05392259 35.44526482 -0.04822803 C40.28407784 -0.04514492 45.12286154 -0.05121874 49.9616704 -0.05726677 C61.37286839 -0.07132927 72.78399154 -0.06973607 84.19519043 -0.05836487 C95.98261971 -0.04687861 107.76982162 -0.06096406 119.55722094 -0.08776134 C129.66511661 -0.10988335 139.77294072 -0.11656373 149.8808589 -0.11068493 C155.92337963 -0.10730617 161.96575454 -0.10979141 168.008255 -0.12693596 C173.68819012 -0.14234755 179.36778704 -0.13851403 185.04770851 -0.11963081 C187.13632452 -0.115929 189.22496527 -0.11909936 191.31355858 -0.1295166 C194.15694467 -0.14261945 196.99919332 -0.13127471 199.8425293 -0.11352539 C200.67608019 -0.1231304 201.50963109 -0.1327354 202.3684411 -0.14263147 C207.90791763 -0.07109909 207.90791763 -0.07109909 210.43488789 2.18725872 C211.96421211 5.59889389 211.81251229 8.97807352 211.76184082 12.64451599 C211.7622789 13.47415359 211.76271698 14.3037912 211.76316833 15.15856934 C211.76108085 17.89663856 211.73775184 20.63409299 211.7142334 23.37205505 C211.7086373 25.27205572 211.70436727 27.17206072 211.70137024 29.07206726 C211.68992258 34.06986976 211.660456 39.0674102 211.6272583 44.06510925 C211.59655577 49.16608638 211.58286451 54.26710589 211.56774902 59.3681488 C211.53558629 69.37477428 211.48439081 79.38120536 211.42126465 89.38768005 C207.46126465 88.39768005 207.46126465 88.39768005 203.42126465 87.38768005 C203.42126465 61.31768005 203.42126465 35.24768005 203.42126465 8.38768005 C134.78126465 8.38768005 66.14126465 8.38768005 -4.57873535 8.38768005 C-4.57873535 76.69768005 -4.57873535 145.00768005 -4.57873535 215.38768005 C64.39126465 215.38768005 133.36126465 215.38768005 204.42126465 215.38768005 C204.42126465 181.06768005 204.42126465 146.74768005 204.42126465 111.38768005 C206.73126465 111.38768005 209.04126465 111.38768005 211.42126465 111.38768005 C211.46798675 125.269648 211.50312156 139.15160375 211.52488899 153.03363419 C211.53533518 159.4793139 211.54950971 165.92494086 211.57214355 172.37059021 C211.59384201 178.58863088 211.60582698 184.80662075 211.61101913 191.02469635 C211.61472027 193.3994044 211.62194747 195.7741096 211.63272476 198.14879608 C211.64719969 201.46969659 211.64924425 204.79038599 211.64831543 208.11131287 C211.65550598 209.09746078 211.66269653 210.0836087 211.67010498 211.09963989 C211.66735565 212.00545303 211.66460632 212.91126617 211.66177368 213.8445282 C211.66361727 214.62989582 211.66546085 215.41526344 211.66736031 216.22443008 C211.38670972 218.69142761 210.73214092 220.28720279 209.42126465 222.38768005 C206.16522743 224.01569866 202.57883503 223.53184577 199.00074768 223.52812195 C198.11910822 223.53109307 197.23746876 223.53406419 196.32911295 223.53712535 C193.35729794 223.54583825 190.38552308 223.54732277 187.41369629 223.54881287 C185.2902162 223.55343914 183.16673694 223.55846354 181.04325867 223.56385803 C175.26236861 223.57700084 169.48149018 223.58343044 163.70058751 223.58786869 C160.09272749 223.59079588 156.48487067 223.59489997 152.87701225 223.59937286 C141.59975132 223.61305163 130.32249768 223.62271691 119.04522902 223.62657475 C106.00660645 223.63105912 92.96808852 223.64862299 79.92949778 223.67757535 C69.8640989 223.69915367 59.79872955 223.70927694 49.73330778 223.71061587 C43.71537887 223.7116665 37.69754828 223.7176291 31.67964363 223.73543549 C26.02194744 223.75185011 20.36442416 223.75410397 14.70671272 223.74529648 C12.62615498 223.74452259 10.54558818 223.74891471 8.46505356 223.75875473 C5.63274823 223.77136846 2.80106523 223.76565545 -0.03123474 223.75517273 C-1.27674784 223.76725734 -1.27674784 223.76725734 -2.54742283 223.77958608 C-8.12317766 223.73105778 -8.12317766 223.73105778 -10.28869694 222.09879231 C-12.54554893 219.10529454 -11.98862911 215.41395444 -11.95968628 211.8089447 C-11.96436625 210.92236726 -11.96904622 210.03578982 -11.97386801 209.1223464 C-11.98587228 206.13967704 -11.97633959 203.15746253 -11.96691895 200.17478943 C-11.97098223 198.04130789 -11.97632274 195.90782845 -11.98284912 193.77435303 C-11.99655739 187.97074311 -11.99120957 182.16729269 -11.98171186 176.36367989 C-11.97413344 170.29920639 -11.98115581 164.23474684 -11.98587036 158.17027283 C-11.99133322 147.98474162 -11.98412238 137.79927559 -11.96984863 127.61375427 C-11.95352114 115.82635763 -11.95880927 104.03911664 -11.97532785 92.25172377 C-11.9889276 82.14383086 -11.99086977 72.0359849 -11.98301184 61.9280858 C-11.97832701 55.88559447 -11.97773268 49.84317637 -11.98762131 43.8006897 C-11.99626672 38.12079749 -11.99031348 32.44110658 -11.97293854 26.76123619 C-11.9689607 24.67262291 -11.97012976 22.58399278 -11.97672653 20.49538612 C-11.98488096 17.65216462 -11.97469456 14.80959497 -11.95968628 11.96641541 C-11.96637844 11.13286451 -11.97307061 10.29931361 -11.97996557 9.4405036 C-11.92235402 3.84360103 -11.92235402 3.84360103 -10.28949845 1.67709154 C-7.29624004 -0.57894366 -3.60476798 -0.025991 0 0 Z " fill="#1B1354" transform="translate(47.5787353515625,55.61231994628906)"/>
<path d="M0 0 C68.64 0 137.28 0 208 0 C208 25.74 208 51.48 208 78 C206.68 78 205.36 78 204 78 C204 53.91 204 29.82 204 5 C138.33 5 72.66 5 5 5 C5 70.01 5 135.02 5 202 C70.34 202 135.68 202 203 202 C203 169 203 136 203 102 C204.65 102 206.3 102 208 102 C208 136.65 208 171.3 208 207 C139.36 207 70.72 207 0 207 C0 138.69 0 70.38 0 0 Z " fill="#F3F3F6" transform="translate(43,64)"/>
<path d="M0 0 C0.78697266 0.16435547 0.78697266 0.16435547 1.58984375 0.33203125 C3.3120418 0.68449441 5.03632809 1.02679428 6.76171875 1.36328125 C8.97672574 1.79880132 11.18763262 2.25556651 13.39453125 2.73046875 C26.72375231 5.39091105 40.17460425 6.02614534 53.72119141 6.75048828 C57.17885027 7.0136102 60.56948257 7.50013966 64 8 C65.34861796 8.09683308 66.699248 8.17214431 68.05078125 8.2109375 C88.96620261 8.99386771 109.50861343 17.37938007 124.11328125 32.796875 C127.21492028 36.41866467 129.82704638 39.63630054 130.1875 44.5625 C128.37589635 48.28105486 125.40941496 50.70868417 122 53 C121.34 53 120.68 53 120 53 C119.81566406 52.38253906 119.63132812 51.76507813 119.44140625 51.12890625 C116.88345927 43.65970106 112.86323602 39.18670879 107 34 C106.67 34.33 106.34 34.66 106 35 C106.27714844 35.49628906 106.55429688 35.99257812 106.83984375 36.50390625 C109.2450171 41.01467621 110.69449629 44.80643689 111 50 C110.67 50.99 110.34 51.98 110 53 C105.28453796 51.33962604 102.08811488 48.8197011 98.28125 45.65625 C94.59495728 42.97990049 91.24282423 41.71668867 86.6875 41.75 C85.99011719 41.74484375 85.29273438 41.7396875 84.57421875 41.734375 C81.79826732 41.94881173 81.79826732 41.94881173 78.41015625 42.9921875 C73.21354031 44.34545395 68.09583037 44.38201956 62.75 44.375 C61.73671631 44.37628906 60.72343262 44.37757813 59.67944336 44.37890625 C52.12661931 44.27224678 45.87441076 43.31154411 39 40 C41.05233685 37.7522025 42.00667261 36.9977758 45 36 C43.63681641 35.67128906 43.63681641 35.67128906 42.24609375 35.3359375 C26.63067247 31.39604659 10.72718945 26.95914849 1 13 C1.58007812 13.13277344 2.16015625 13.26554687 2.7578125 13.40234375 C3.53898437 13.57894531 4.32015625 13.75554687 5.125 13.9375 C5.89070313 14.11152344 6.65640625 14.28554687 7.4453125 14.46484375 C10.28550945 15.05980855 13.13526619 15.53915152 16 16 C15.34773438 15.43152344 14.69546875 14.86304687 14.0234375 14.27734375 C8.93114851 9.77840407 4.27266363 5.28461028 0 0 Z " fill="#0A6AB5" transform="translate(99,87)"/>
<path d="M0 0 C1.40668945 -0.08024414 1.40668945 -0.08024414 2.84179688 -0.16210938 C9.6897672 -0.25380172 9.6897672 -0.25380172 12.55224609 2.44677734 C14.10546875 4.60546875 14.10546875 4.60546875 15.36010742 6.76635742 C16.91336227 9.01439171 18.16723285 9.70524524 20.6875 10.6875 C24.6342704 11.3805558 28.22875485 11.45147784 31.828125 9.56640625 C33.51208649 8.35819811 35.10916608 7.03076291 36.6875 5.6875 C38.9975 7.9975 41.3075 10.3075 43.6875 12.6875 C41.41856888 17.22536224 39.58883466 18.63428157 35.6875 21.6875 C37.38519531 21.67009766 37.38519531 21.67009766 39.1171875 21.65234375 C40.59895669 21.64296546 42.08072765 21.6338653 43.5625 21.625 C44.30886719 21.61662109 45.05523437 21.60824219 45.82421875 21.59960938 C51.4609375 21.57421875 51.4609375 21.57421875 53.6875 22.6875 C52.6875 25.6875 52.6875 25.6875 48.6875 28.6875 C53.3075 28.3575 57.9275 28.0275 62.6875 27.6875 C62.6875 28.3475 62.6875 29.0075 62.6875 29.6875 C61.51784207 30.73247358 60.29981908 31.723596 59.0625 32.6875 C52.03633114 38.69213367 47.56298968 46.41938513 46.6875 55.6875 C46.4238192 61.67054295 47.17874294 66.72492654 48.6875 72.5 C50.6875 80.35810811 50.6875 80.35810811 50.6875 83.6875 C47.5152454 82.1830656 44.62393535 80.41430729 41.6875 78.4921875 C40.72352295 77.8626416 39.7595459 77.2330957 38.76635742 76.58447266 C37.75033447 75.91722168 36.73431152 75.2499707 35.6875 74.5625 C34.12962769 73.540354 34.12962769 73.540354 32.5402832 72.49755859 C30.49461639 71.15473396 28.44943484 69.81116974 26.40478516 68.46679688 C24.22971502 67.0425461 22.04784875 65.63170261 19.85546875 64.234375 C1.54727098 52.42882677 1.54727098 52.42882677 -2.3125 42.6875 C-2.3125 39.4375 -2.3125 39.4375 -1.3125 36.6875 C1.7875 33.6875 1.7875 33.6875 4.6875 33.6875 C4.6875 33.0275 4.6875 32.3675 4.6875 31.6875 C4.15125 31.584375 3.615 31.48125 3.0625 31.375 C-3.46776369 29.48466051 -7.6176593 26.30583131 -11.3125 20.6875 C-14.2171688 14.82554159 -14.84542369 10.03818386 -13.3125 3.6875 C-9.95521936 -0.80856815 -5.16140789 0.05956818 0 0 Z " fill="#F1EEE9" transform="translate(162.3125,138.3125)"/>
<path d="M0 0 C65.01 0 130.02 0 197 0 C197 23.43 197 46.86 197 71 C196.01 70.67 195.02 70.34 194 70 C194 47.56 194 25.12 194 2 C130.97 2 67.94 2 3 2 C3 65.03 3 128.06 3 193 C66.03 193 129.06 193 194 193 C194 161.65 194 130.3 194 98 C194.99 97.67 195.98 97.34 197 97 C197 129.34 197 161.68 197 195 C131.99 195 66.98 195 0 195 C0 130.65 0 66.3 0 0 Z " fill="#1A1353" transform="translate(49,70)"/>
<path d="M0 0 C0.97710937 -0.02449219 1.95421875 -0.04898438 2.9609375 -0.07421875 C11.119148 -0.1067648 18.36083685 1.70442694 25 6.625 C29.92076733 11.78008959 32.20372076 17.21325299 32.625 24.375 C32.13 25.86 32.13 25.86 31.625 27.375 C26.90953796 25.71462604 23.71311488 23.1947011 19.90625 20.03125 C16.21995728 17.35490049 12.86782423 16.09168867 8.3125 16.125 C7.26642578 16.11726562 7.26642578 16.11726562 6.19921875 16.109375 C3.42623308 16.32191614 3.42623308 16.32191614 0.05859375 17.375 C-5.26535477 18.76585745 -10.5284102 18.66719735 -16 18.625 C-17.010625 18.63273437 -18.02125 18.64046875 -19.0625 18.6484375 C-24.22284641 18.63489328 -28.55245974 18.4488569 -33.375 16.375 C-33.375 15.715 -33.375 15.055 -33.375 14.375 C-31.10479898 13.39434513 -28.83387746 12.4154231 -26.5625 11.4375 C-25.91990234 11.15970703 -25.27730469 10.88191406 -24.61523438 10.59570312 C-21.88862285 9.4231189 -19.19231354 8.31410451 -16.375 7.375 C-18.355 6.715 -20.335 6.055 -22.375 5.375 C-17.73444529 -1.00576273 -7.02000606 0.00918849 0 0 Z " fill="#EAE9E7" transform="translate(177.375,112.625)"/>
<path d="M0 0 C0.66 0.33 1.32 0.66 2 1 C1.67 2.98 1.34 4.96 1 7 C4.3 6.67 7.6 6.34 11 6 C10.01 5.01 9.02 4.02 8 3 C8 2.34 8 1.68 8 1 C7.34 0.67 6.68 0.34 6 0 C11.7934866 0.6098407 16.68378856 2.77182699 22 5 C22.98871094 5.38414062 23.97742188 5.76828125 24.99609375 6.1640625 C31.57936988 8.7638276 37.29415507 11.80706849 43 16 C40.447372 17.276314 39.2216438 16.89545081 36.4140625 16.4765625 C35.48207031 16.3425 34.55007813 16.2084375 33.58984375 16.0703125 C32.61144531 15.92335937 31.63304687 15.77640625 30.625 15.625 C18.34373075 13.8055527 6.15491309 12.88419404 -6.25 12.4375 C-7.38824219 12.39431641 -8.52648437 12.35113281 -9.69921875 12.30664062 C-12.46606496 12.20201199 -15.23297726 12.0998311 -18 12 C-15.04519417 8.85765833 -11.62110296 6.94103254 -7.875 4.875 C-3.68603269 2.77377804 -3.68603269 2.77377804 0 0 Z " fill="#21609B" transform="translate(233,142)"/>
<path d="M0 0 C2.75059381 -0.08107646 5.49879021 -0.14052813 8.25 -0.1875 C9.02730469 -0.21263672 9.80460937 -0.23777344 10.60546875 -0.26367188 C16.42997175 -0.33834499 16.42997175 -0.33834499 19.546875 1.51171875 C20.02640625 2.00285156 20.5059375 2.49398437 21 3 C20.690625 4.175625 20.690625 4.175625 20.375 5.375 C20.25125 6.24125 20.1275 7.1075 20 8 C20.66 8.66 21.32 9.32 22 10 C21.875 12 21.875 12 21 14 C17.19354178 16.82032915 12.75939205 16.22221741 8.25 16.125 C7.45722656 16.11597656 6.66445312 16.10695312 5.84765625 16.09765625 C3.89830719 16.07417012 1.94911425 16.03830137 0 16 C0 10.72 0 5.44 0 0 Z " fill="#1B71AD" transform="translate(61,187)"/>
<path d="M0 0 C5.94 0 11.88 0 18 0 C18 1.32 18 2.64 18 4 C14.04 4 10.08 4 6 4 C6 4.99 6 5.98 6 7 C9.3 7 12.6 7 16 7 C16 7.99 16 8.98 16 10 C12.7 10 9.4 10 6 10 C6 10.66 6 11.32 6 12 C10.29 12 14.58 12 19 12 C19 13.32 19 14.64 19 16 C12.73 16 6.46 16 0 16 C0 10.72 0 5.44 0 0 Z " fill="#146CB2" transform="translate(128,187)"/>
<path d="M0 0 C2.31 0 4.62 0 7 0 C7.33 3.63 7.66 7.26 8 11 C9.32 11 10.64 11 12 11 C12.33 7.37 12.66 3.74 13 0 C15.31 0 17.62 0 20 0 C20.08142927 1.7492214 20.13938541 3.49954542 20.1875 5.25 C20.23970703 6.71179688 20.23970703 6.71179688 20.29296875 8.203125 C19.95519178 11.42776918 19.25529239 12.70790797 17 15 C12.95743997 16.34752001 9.22947847 16.43594986 5 16 C1.71068486 14.27310955 1.1859733 13.5579199 0 10 C-0.06802967 8.27204648 -0.08495645 6.54164635 -0.0625 4.8125 C-0.05347656 3.91144531 -0.04445313 3.01039063 -0.03515625 2.08203125 C-0.02355469 1.39496094 -0.01195313 0.70789063 0 0 Z " fill="#1B70AD" transform="translate(105,187)"/>
<path d="M0 0 C1.98 0 3.96 0 6 0 C6.67668949 2.20528272 7.34093498 4.41438609 8 6.625 C8.37125 7.85476562 8.7425 9.08453125 9.125 10.3515625 C9.93727719 13.73846826 10.17041013 16.53854429 10 20 C8.68 20 7.36 20 6 20 C5.67 18.68 5.34 17.36 5 16 C3.35 16 1.7 16 0 16 C0 17.32 0 18.64 0 20 C-1.32 20 -2.64 20 -4 20 C-3.42978625 13.04339229 -1.98697306 6.68572695 0 0 Z " fill="#F3F9EC" transform="translate(142,217)"/>
<path d="M0 0 C1.81882505 1.27942651 1.81882505 1.27942651 4.52734375 2.25390625 C6.86837332 3.19031808 8.0807706 4.23682155 9.71484375 6.12890625 C9.05484375 6.78890625 8.39484375 7.44890625 7.71484375 8.12890625 C7.25078125 7.83757812 6.78671875 7.54625 6.30859375 7.24609375 C-2.02257414 2.30334862 -11.78756218 -1.8201994 -21.28515625 -3.87109375 C-21.01839421 -1.88617733 -21.01839421 -1.88617733 -20.28515625 0.12890625 C-19.29515625 0.45890625 -18.30515625 0.78890625 -17.28515625 1.12890625 C-17.28515625 1.45890625 -17.28515625 1.78890625 -17.28515625 2.12890625 C-20.91515625 2.12890625 -24.54515625 2.12890625 -28.28515625 2.12890625 C-28.28515625 0.14890625 -28.28515625 -1.83109375 -28.28515625 -3.87109375 C-29.27515625 -3.54109375 -30.26515625 -3.21109375 -31.28515625 -2.87109375 C-30.95515625 -4.19109375 -30.62515625 -5.51109375 -30.28515625 -6.87109375 C-19.94593029 -9.14067994 -8.61526857 -5.90207561 0 0 Z " fill="#0F2E50" transform="translate(262.28515625,146.87109375)"/>
<path d="M0 0 C1.65 0 3.3 0 5 0 C5.05790353 3.29159316 5.09356261 6.58305603 5.125 9.875 C5.14175781 10.81214844 5.15851563 11.74929687 5.17578125 12.71484375 C5.18222656 13.61074219 5.18867188 14.50664062 5.1953125 15.4296875 C5.20578613 16.25710449 5.21625977 17.08452148 5.22705078 17.93701172 C5 20 5 20 3 22 C0.87109375 22.23046875 0.87109375 22.23046875 -1.5625 22.1875 C-2.36816406 22.18105469 -3.17382812 22.17460937 -4.00390625 22.16796875 C-6 22 -6 22 -7 21 C-7.04092937 18.66702567 -7.04241723 16.33294775 -7 14 C-4.525 14.495 -4.525 14.495 -2 15 C-2 15.99 -2 16.98 -2 18 C-1.34 18 -0.68 18 0 18 C0 12.06 0 6.12 0 0 Z " fill="#F6FAF0" transform="translate(131,215)"/>
<path d="M0 0 C1.65 0 3.3 0 5 0 C5.66 1.65 6.32 3.3 7 5 C7.66 5 8.32 5 9 5 C9.66 3.35 10.32 1.7 11 0 C12.32 0 13.64 0 15 0 C14.53330347 3.08019713 13.7952703 5.45211142 12.5 8.3125 C10.84020816 12.3928216 10.38247581 15.63977575 10 20 C8.35 20 6.7 20 5 20 C4.96132812 19.05640625 4.96132812 19.05640625 4.921875 18.09375 C4.55362732 12.5365578 3.62620425 8.43269635 0.83984375 3.59375 C0 2 0 2 0 0 Z " fill="#F3F9EC" transform="translate(152,217)"/>
<path d="M0 0 C1.98 0 3.96 0 6 0 C6 3.96 6 7.92 6 12 C9.96 12 13.92 12 18 12 C18 13.32 18 14.64 18 16 C12.06 16 6.12 16 0 16 C0 10.72 0 5.44 0 0 Z " fill="#146BB2" transform="translate(86,187)"/>
<path d="M0 0 C2.64 0.33 5.28 0.66 8 1 C8.268125 1.969375 8.53625 2.93875 8.8125 3.9375 C9.204375 4.948125 9.59625 5.95875 10 7 C10.99 7.33 11.98 7.66 13 8 C13 8.33 13 8.66 13 9 C9.37 9 5.74 9 2 9 C2 7.02 2 5.04 2 3 C1.01 3.33 0.02 3.66 -1 4 C-0.67 2.68 -0.34 1.36 0 0 Z " fill="#205A91" transform="translate(232,140)"/>
<path d="M0 0 C1.99954746 -0.04254356 4.00041636 -0.04080783 6 0 C7 1 7 1 7.25 3.375 C7 6 7 6 5.5 7.8125 C5.005 8.204375 4.51 8.59625 4 9 C4.99 9.33 5.98 9.66 7 10 C7 10.99 7 11.98 7 13 C4.36 13 1.72 13 -1 13 C-0.41980487 9.63486826 0.63451473 8.36548527 3 6 C3.71447643 3.89667109 3.71447643 3.89667109 4 2 C2.35 2.33 0.7 2.66 -1 3 C-0.67 2.01 -0.34 1.02 0 0 Z " fill="#EAF4DC" transform="translate(169,213)"/>
<path d="M0 0 C3 1 6 2 9 3 C8 5 8 5 5.93359375 5.8515625 C4.69802734 6.23441406 4.69802734 6.23441406 3.4375 6.625 C2.61121094 6.88539062 1.78492188 7.14578125 0.93359375 7.4140625 C0.29550781 7.60742188 -0.34257812 7.80078125 -1 8 C-0.649375 7.236875 -0.29875 6.47375 0.0625 5.6875 C1.32360884 2.95240621 1.32360884 2.95240621 0 0 Z " fill="#2778B9" transform="translate(153,116)"/>
<path d="M0 0 C4.10801767 1.18676066 5.89448334 1.89448334 9 5 C5.7 5 2.4 5 -1 5 C-0.67 3.35 -0.34 1.7 0 0 Z " fill="#092747" transform="translate(236,144)"/>
<path d="M0 0 C1.65 0 3.3 0 5 0 C4.67 1.65 4.34 3.3 4 5 C2.35 4.67 0.7 4.34 -1 4 C-0.67 2.68 -0.34 1.36 0 0 Z " fill="#DADAD8" transform="translate(183,132)"/>
<path d="M0 0 C0 0.66 0 1.32 0 2 C-5.66642551 3.22517308 -11.23708518 3.09228867 -17 3 C-14.34932646 0.34932646 -12.75528503 0.61670957 -9.0625 0.375 C-8.00160156 0.30023438 -6.94070312 0.22546875 -5.84765625 0.1484375 C-3.90045323 0.04693721 -1.94984664 0 0 0 Z " fill="#979DA4" transform="translate(225,166)"/>
<path d="M0 0 C2.31 0 4.62 0 7 0 C7.33 0.99 7.66 1.98 8 3 C5.36 3 2.72 3 0 3 C0 2.01 0 1.02 0 0 Z " fill="#8FC362" transform="translate(67,191)"/>
<path d="M0 0 C-0.33 0.99 -0.66 1.98 -1 3 C-1.66 3 -2.32 3 -3 3 C-3 3.66 -3 4.32 -3 5 C-4.65 4.67 -6.3 4.34 -8 4 C-5.57415142 1.34311822 -3.76063134 0 0 0 Z " fill="#1163A4" transform="translate(146,123)"/>
<path d="M0 0 C1.98 0 3.96 0 6 0 C6 1.65 6 3.3 6 5 C5.67 4.01 5.34 3.02 5 2 C3.02 2.33 1.04 2.66 -1 3 C-0.67 2.01 -0.34 1.02 0 0 Z " fill="#F0F7E7" transform="translate(169,213)"/>
<path d="M0 0 C4.455 0.99 4.455 0.99 9 2 C7.68 2.99 6.36 3.98 5 5 C3.35 3.35 1.7 1.7 0 0 Z " fill="#0C5A9A" transform="translate(100,100)"/>
<path d="M0 0 C1.65 1.32 3.3 2.64 5 4 C4.34 4.66 3.68 5.32 3 6 C1.02 5.01 -0.96 4.02 -3 3 C-2.01 2.67 -1.02 2.34 0 2 C0 1.34 0 0.68 0 0 Z " fill="#1D3C5C" transform="translate(267,149)"/>
</svg>
